<svg xmlns="http://www.w3.org/2000/svg" width="960" height="540" viewBox="0 0 960 540" role="img" aria-labelledby="title desc">
  <title id="title">VO21-034 k level diagram</title>
  <desc id="desc">K11 - meta-evolution of operators, meta-logics and meta-spaces: traceable k level diagram generated from canonical 021 f</desc>
  <rect width="960" height="540" fill="#203a43" />
  <rect x="36" y="34" width="888" height="472" rx="18" fill="none" stroke="#f6f1d1" stroke-width="2" opacity="0.55" />
  <text x="56" y="78" fill="#ffffff" font-family="Arial, sans-serif" font-size="26" font-weight="700">VO21-034</text>
  <text x="56" y="112" fill="#f6f1d1" font-family="Arial, sans-serif" font-size="18">k level diagram</text>
  <line x1="586" y1="376" x2="623" y2="161" stroke="#f6f1d1" stroke-width="2" opacity="0.55" />
<line x1="623" y1="161" x2="707" y2="326" stroke="#f6f1d1" stroke-width="2" opacity="0.55" />
<line x1="707" y1="326" x2="718" y2="369" stroke="#f6f1d1" stroke-width="2" opacity="0.55" />
<line x1="718" y1="369" x2="239" y2="339" stroke="#f6f1d1" stroke-width="2" opacity="0.55" />
<line x1="239" y1="339" x2="659" y2="208" stroke="#f6f1d1" stroke-width="2" opacity="0.55" />
<line x1="659" y1="208" x2="586" y2="376" stroke="#f6f1d1" stroke-width="2" opacity="0.55" />
  <circle cx="586" cy="376" r="16" fill="#77dd77" opacity="0.62" />
<circle cx="623" cy="161" r="19" fill="#77dd77" opacity="0.8" />
<circle cx="707" cy="326" r="22" fill="#77dd77" opacity="0.62" />
<circle cx="718" cy="369" r="16" fill="#77dd77" opacity="0.8" />
<circle cx="239" cy="339" r="19" fill="#77dd77" opacity="0.62" />
<circle cx="659" cy="208" r="22" fill="#77dd77" opacity="0.8" />
  <path d="M92 430 C 220 360, 290 470, 420 406 S 650 348, 830 424" fill="none" stroke="#77dd77" stroke-width="8" opacity="0.82" />
  <text x="56" y="472" fill="#ffffff" font-family="Arial, sans-serif" font-size="18">K11 - meta-evolution of operators, meta-logics and meta-spaces</text>
  <text x="56" y="500" fill="#d7dee8" font-family="Arial, sans-serif" font-size="13">K11 - meta-evolution of operators, meta-logics and meta-spaces: traceable k level diagram generated from canonical 021 f</text>
</svg>
