<svg xmlns="http://www.w3.org/2000/svg" width="960" height="540" viewBox="0 0 960 540" role="img" aria-labelledby="title desc">
  <title id="title">VO21-006 graph slice</title>
  <desc id="desc">Differentiate: traceable graph slice generated from canonical 021 frontier data.</desc>
  <rect width="960" height="540" fill="#12343b" />
  <rect x="36" y="34" width="888" height="472" rx="18" fill="none" stroke="#f2c14e" stroke-width="2" opacity="0.55" />
  <text x="56" y="78" fill="#ffffff" font-family="Arial, sans-serif" font-size="26" font-weight="700">VO21-006</text>
  <text x="56" y="112" fill="#f2c14e" font-family="Arial, sans-serif" font-size="18">graph slice</text>
  <line x1="539" y1="209" x2="697" y2="378" stroke="#f2c14e" stroke-width="2" opacity="0.55" />
<line x1="697" y1="378" x2="717" y2="389" stroke="#f2c14e" stroke-width="2" opacity="0.55" />
<line x1="717" y1="389" x2="239" y2="389" stroke="#f2c14e" stroke-width="2" opacity="0.55" />
<line x1="239" y1="389" x2="499" y2="276" stroke="#f2c14e" stroke-width="2" opacity="0.55" />
<line x1="499" y1="276" x2="212" y2="334" stroke="#f2c14e" stroke-width="2" opacity="0.55" />
<line x1="212" y1="334" x2="539" y2="209" stroke="#f2c14e" stroke-width="2" opacity="0.55" />
  <circle cx="539" cy="209" r="16" fill="#2ca6a4" opacity="0.62" />
<circle cx="697" cy="378" r="19" fill="#2ca6a4" opacity="0.8" />
<circle cx="717" cy="389" r="22" fill="#2ca6a4" opacity="0.62" />
<circle cx="239" cy="389" r="16" fill="#2ca6a4" opacity="0.8" />
<circle cx="499" cy="276" r="19" fill="#2ca6a4" opacity="0.62" />
<circle cx="212" cy="334" r="22" fill="#2ca6a4" opacity="0.8" />
  <path d="M92 430 C 220 360, 290 470, 420 406 S 650 348, 830 424" fill="none" stroke="#2ca6a4" stroke-width="8" opacity="0.82" />
  <text x="56" y="472" fill="#ffffff" font-family="Arial, sans-serif" font-size="18">Differentiate</text>
  <text x="56" y="500" fill="#d7dee8" font-family="Arial, sans-serif" font-size="13">Differentiate: traceable graph slice generated from canonical 021 frontier data.</text>
</svg>
