<svg xmlns="http://www.w3.org/2000/svg" width="960" height="540" viewBox="0 0 960 540" role="img" aria-labelledby="title desc">
  <title id="title">VO21-026 k level diagram</title>
  <desc id="desc">K3 - chemical organisation and origins-of-life / prebiotic structures: traceable k level diagram generated from canonica</desc>
  <rect width="960" height="540" fill="#203a43" />
  <rect x="36" y="34" width="888" height="472" rx="18" fill="none" stroke="#f6f1d1" stroke-width="2" opacity="0.55" />
  <text x="56" y="78" fill="#ffffff" font-family="Arial, sans-serif" font-size="26" font-weight="700">VO21-026</text>
  <text x="56" y="112" fill="#f6f1d1" font-family="Arial, sans-serif" font-size="18">k level diagram</text>
  <line x1="215" y1="165" x2="176" y2="278" stroke="#f6f1d1" stroke-width="2" opacity="0.55" />
<line x1="176" y1="278" x2="572" y2="253" stroke="#f6f1d1" stroke-width="2" opacity="0.55" />
<line x1="572" y1="253" x2="141" y2="137" stroke="#f6f1d1" stroke-width="2" opacity="0.55" />
<line x1="141" y1="137" x2="327" y2="325" stroke="#f6f1d1" stroke-width="2" opacity="0.55" />
<line x1="327" y1="325" x2="670" y2="288" stroke="#f6f1d1" stroke-width="2" opacity="0.55" />
<line x1="670" y1="288" x2="215" y2="165" stroke="#f6f1d1" stroke-width="2" opacity="0.55" />
  <circle cx="215" cy="165" r="16" fill="#77dd77" opacity="0.62" />
<circle cx="176" cy="278" r="19" fill="#77dd77" opacity="0.8" />
<circle cx="572" cy="253" r="22" fill="#77dd77" opacity="0.62" />
<circle cx="141" cy="137" r="16" fill="#77dd77" opacity="0.8" />
<circle cx="327" cy="325" r="19" fill="#77dd77" opacity="0.62" />
<circle cx="670" cy="288" r="22" fill="#77dd77" opacity="0.8" />
  <path d="M92 430 C 220 360, 290 470, 420 406 S 650 348, 830 424" fill="none" stroke="#77dd77" stroke-width="8" opacity="0.82" />
  <text x="56" y="472" fill="#ffffff" font-family="Arial, sans-serif" font-size="18">K3 - chemical organisation and origins-of-life / prebiotic structures</text>
  <text x="56" y="500" fill="#d7dee8" font-family="Arial, sans-serif" font-size="13">K3 - chemical organisation and origins-of-life / prebiotic structures: traceable k level diagram generated from canonica</text>
</svg>
