<svg xmlns="http://www.w3.org/2000/svg" width="960" height="540" viewBox="0 0 960 540" role="img" aria-labelledby="title desc">
  <title id="title">VO21-046 graph slice</title>
  <desc id="desc">Chemistry: traceable graph slice generated from canonical 021 frontier data.</desc>
  <rect width="960" height="540" fill="#12343b" />
  <rect x="36" y="34" width="888" height="472" rx="18" fill="none" stroke="#f2c14e" stroke-width="2" opacity="0.55" />
  <text x="56" y="78" fill="#ffffff" font-family="Arial, sans-serif" font-size="26" font-weight="700">VO21-046</text>
  <text x="56" y="112" fill="#f2c14e" font-family="Arial, sans-serif" font-size="18">graph slice</text>
  <line x1="355" y1="245" x2="514" y2="267" stroke="#f2c14e" stroke-width="2" opacity="0.55" />
<line x1="514" y1="267" x2="294" y2="203" stroke="#f2c14e" stroke-width="2" opacity="0.55" />
<line x1="294" y1="203" x2="106" y2="313" stroke="#f2c14e" stroke-width="2" opacity="0.55" />
<line x1="106" y1="313" x2="403" y2="190" stroke="#f2c14e" stroke-width="2" opacity="0.55" />
<line x1="403" y1="190" x2="120" y2="231" stroke="#f2c14e" stroke-width="2" opacity="0.55" />
<line x1="120" y1="231" x2="355" y2="245" stroke="#f2c14e" stroke-width="2" opacity="0.55" />
  <circle cx="355" cy="245" r="16" fill="#2ca6a4" opacity="0.62" />
<circle cx="514" cy="267" r="19" fill="#2ca6a4" opacity="0.8" />
<circle cx="294" cy="203" r="22" fill="#2ca6a4" opacity="0.62" />
<circle cx="106" cy="313" r="16" fill="#2ca6a4" opacity="0.8" />
<circle cx="403" cy="190" r="19" fill="#2ca6a4" opacity="0.62" />
<circle cx="120" cy="231" r="22" fill="#2ca6a4" opacity="0.8" />
  <path d="M92 430 C 220 360, 290 470, 420 406 S 650 348, 830 424" fill="none" stroke="#2ca6a4" stroke-width="8" opacity="0.82" />
  <text x="56" y="472" fill="#ffffff" font-family="Arial, sans-serif" font-size="18">Chemistry</text>
  <text x="56" y="500" fill="#d7dee8" font-family="Arial, sans-serif" font-size="13">Chemistry: traceable graph slice generated from canonical 021 frontier data.</text>
</svg>
