<svg xmlns="http://www.w3.org/2000/svg" width="960" height="540" viewBox="0 0 960 540" role="img" aria-labelledby="title desc">
  <title id="title">VO21-043 graph slice</title>
  <desc id="desc">New-axis birth capacity: traceable graph slice generated from canonical 021 frontier data.</desc>
  <rect width="960" height="540" fill="#12343b" />
  <rect x="36" y="34" width="888" height="472" rx="18" fill="none" stroke="#f2c14e" stroke-width="2" opacity="0.55" />
  <text x="56" y="78" fill="#ffffff" font-family="Arial, sans-serif" font-size="26" font-weight="700">VO21-043</text>
  <text x="56" y="112" fill="#f2c14e" font-family="Arial, sans-serif" font-size="18">graph slice</text>
  <line x1="618" y1="248" x2="627" y2="283" stroke="#f2c14e" stroke-width="2" opacity="0.55" />
<line x1="627" y1="283" x2="628" y2="367" stroke="#f2c14e" stroke-width="2" opacity="0.55" />
<line x1="628" y1="367" x2="708" y2="388" stroke="#f2c14e" stroke-width="2" opacity="0.55" />
<line x1="708" y1="388" x2="318" y2="324" stroke="#f2c14e" stroke-width="2" opacity="0.55" />
<line x1="318" y1="324" x2="269" y2="255" stroke="#f2c14e" stroke-width="2" opacity="0.55" />
<line x1="269" y1="255" x2="618" y2="248" stroke="#f2c14e" stroke-width="2" opacity="0.55" />
  <circle cx="618" cy="248" r="16" fill="#2ca6a4" opacity="0.62" />
<circle cx="627" cy="283" r="19" fill="#2ca6a4" opacity="0.8" />
<circle cx="628" cy="367" r="22" fill="#2ca6a4" opacity="0.62" />
<circle cx="708" cy="388" r="16" fill="#2ca6a4" opacity="0.8" />
<circle cx="318" cy="324" r="19" fill="#2ca6a4" opacity="0.62" />
<circle cx="269" cy="255" r="22" fill="#2ca6a4" opacity="0.8" />
  <path d="M92 430 C 220 360, 290 470, 420 406 S 650 348, 830 424" fill="none" stroke="#2ca6a4" stroke-width="8" opacity="0.82" />
  <text x="56" y="472" fill="#ffffff" font-family="Arial, sans-serif" font-size="18">New-axis birth capacity</text>
  <text x="56" y="500" fill="#d7dee8" font-family="Arial, sans-serif" font-size="13">New-axis birth capacity: traceable graph slice generated from canonical 021 frontier data.</text>
</svg>
