<svg xmlns="http://www.w3.org/2000/svg" width="960" height="540" viewBox="0 0 960 540" role="img" aria-labelledby="title desc">
  <title id="title">VO21-033 k level diagram</title>
  <desc id="desc">K10 - meta-theoretical continua: traceable k level diagram generated from canonical 021 frontier data.</desc>
  <rect width="960" height="540" fill="#203a43" />
  <rect x="36" y="34" width="888" height="472" rx="18" fill="none" stroke="#f6f1d1" stroke-width="2" opacity="0.55" />
  <text x="56" y="78" fill="#ffffff" font-family="Arial, sans-serif" font-size="26" font-weight="700">VO21-033</text>
  <text x="56" y="112" fill="#f6f1d1" font-family="Arial, sans-serif" font-size="18">k level diagram</text>
  <line x1="249" y1="179" x2="261" y2="360" stroke="#f6f1d1" stroke-width="2" opacity="0.55" />
<line x1="261" y1="360" x2="182" y2="355" stroke="#f6f1d1" stroke-width="2" opacity="0.55" />
<line x1="182" y1="355" x2="492" y2="241" stroke="#f6f1d1" stroke-width="2" opacity="0.55" />
<line x1="492" y1="241" x2="531" y2="218" stroke="#f6f1d1" stroke-width="2" opacity="0.55" />
<line x1="531" y1="218" x2="216" y2="314" stroke="#f6f1d1" stroke-width="2" opacity="0.55" />
<line x1="216" y1="314" x2="249" y2="179" stroke="#f6f1d1" stroke-width="2" opacity="0.55" />
  <circle cx="249" cy="179" r="16" fill="#77dd77" opacity="0.62" />
<circle cx="261" cy="360" r="19" fill="#77dd77" opacity="0.8" />
<circle cx="182" cy="355" r="22" fill="#77dd77" opacity="0.62" />
<circle cx="492" cy="241" r="16" fill="#77dd77" opacity="0.8" />
<circle cx="531" cy="218" r="19" fill="#77dd77" opacity="0.62" />
<circle cx="216" cy="314" r="22" fill="#77dd77" opacity="0.8" />
  <path d="M92 430 C 220 360, 290 470, 420 406 S 650 348, 830 424" fill="none" stroke="#77dd77" stroke-width="8" opacity="0.82" />
  <text x="56" y="472" fill="#ffffff" font-family="Arial, sans-serif" font-size="18">K10 - meta-theoretical continua</text>
  <text x="56" y="500" fill="#d7dee8" font-family="Arial, sans-serif" font-size="13">K10 - meta-theoretical continua: traceable k level diagram generated from canonical 021 frontier data.</text>
</svg>
