<svg xmlns="http://www.w3.org/2000/svg" width="960" height="540" viewBox="0 0 960 540" role="img" aria-labelledby="title desc">
  <title id="title">VO21-048 graph slice</title>
  <desc id="desc">Biology: traceable graph slice generated from canonical 021 frontier data.</desc>
  <rect width="960" height="540" fill="#12343b" />
  <rect x="36" y="34" width="888" height="472" rx="18" fill="none" stroke="#f2c14e" stroke-width="2" opacity="0.55" />
  <text x="56" y="78" fill="#ffffff" font-family="Arial, sans-serif" font-size="26" font-weight="700">VO21-048</text>
  <text x="56" y="112" fill="#f2c14e" font-family="Arial, sans-serif" font-size="18">graph slice</text>
  <line x1="522" y1="252" x2="375" y2="137" stroke="#f2c14e" stroke-width="2" opacity="0.55" />
<line x1="375" y1="137" x2="196" y2="179" stroke="#f2c14e" stroke-width="2" opacity="0.55" />
<line x1="196" y1="179" x2="414" y2="311" stroke="#f2c14e" stroke-width="2" opacity="0.55" />
<line x1="414" y1="311" x2="521" y2="157" stroke="#f2c14e" stroke-width="2" opacity="0.55" />
<line x1="521" y1="157" x2="375" y2="359" stroke="#f2c14e" stroke-width="2" opacity="0.55" />
<line x1="375" y1="359" x2="522" y2="252" stroke="#f2c14e" stroke-width="2" opacity="0.55" />
  <circle cx="522" cy="252" r="16" fill="#2ca6a4" opacity="0.62" />
<circle cx="375" cy="137" r="19" fill="#2ca6a4" opacity="0.8" />
<circle cx="196" cy="179" r="22" fill="#2ca6a4" opacity="0.62" />
<circle cx="414" cy="311" r="16" fill="#2ca6a4" opacity="0.8" />
<circle cx="521" cy="157" r="19" fill="#2ca6a4" opacity="0.62" />
<circle cx="375" cy="359" r="22" fill="#2ca6a4" opacity="0.8" />
  <path d="M92 430 C 220 360, 290 470, 420 406 S 650 348, 830 424" fill="none" stroke="#2ca6a4" stroke-width="8" opacity="0.82" />
  <text x="56" y="472" fill="#ffffff" font-family="Arial, sans-serif" font-size="18">Biology</text>
  <text x="56" y="500" fill="#d7dee8" font-family="Arial, sans-serif" font-size="13">Biology: traceable graph slice generated from canonical 021 frontier data.</text>
</svg>
