<svg xmlns="http://www.w3.org/2000/svg" width="960" height="540" viewBox="0 0 960 540" role="img" aria-labelledby="title desc">
  <title id="title">VO21-007 graph slice</title>
  <desc id="desc">Stabilize: traceable graph slice generated from canonical 021 frontier data.</desc>
  <rect width="960" height="540" fill="#12343b" />
  <rect x="36" y="34" width="888" height="472" rx="18" fill="none" stroke="#f2c14e" stroke-width="2" opacity="0.55" />
  <text x="56" y="78" fill="#ffffff" font-family="Arial, sans-serif" font-size="26" font-weight="700">VO21-007</text>
  <text x="56" y="112" fill="#f2c14e" font-family="Arial, sans-serif" font-size="18">graph slice</text>
  <line x1="671" y1="201" x2="153" y2="166" stroke="#f2c14e" stroke-width="2" opacity="0.55" />
<line x1="153" y1="166" x2="329" y2="132" stroke="#f2c14e" stroke-width="2" opacity="0.55" />
<line x1="329" y1="132" x2="431" y2="373" stroke="#f2c14e" stroke-width="2" opacity="0.55" />
<line x1="431" y1="373" x2="363" y2="307" stroke="#f2c14e" stroke-width="2" opacity="0.55" />
<line x1="363" y1="307" x2="595" y2="206" stroke="#f2c14e" stroke-width="2" opacity="0.55" />
<line x1="595" y1="206" x2="671" y2="201" stroke="#f2c14e" stroke-width="2" opacity="0.55" />
  <circle cx="671" cy="201" r="16" fill="#2ca6a4" opacity="0.62" />
<circle cx="153" cy="166" r="19" fill="#2ca6a4" opacity="0.8" />
<circle cx="329" cy="132" r="22" fill="#2ca6a4" opacity="0.62" />
<circle cx="431" cy="373" r="16" fill="#2ca6a4" opacity="0.8" />
<circle cx="363" cy="307" r="19" fill="#2ca6a4" opacity="0.62" />
<circle cx="595" cy="206" r="22" fill="#2ca6a4" opacity="0.8" />
  <path d="M92 430 C 220 360, 290 470, 420 406 S 650 348, 830 424" fill="none" stroke="#2ca6a4" stroke-width="8" opacity="0.82" />
  <text x="56" y="472" fill="#ffffff" font-family="Arial, sans-serif" font-size="18">Stabilize</text>
  <text x="56" y="500" fill="#d7dee8" font-family="Arial, sans-serif" font-size="13">Stabilize: traceable graph slice generated from canonical 021 frontier data.</text>
</svg>
