<svg xmlns="http://www.w3.org/2000/svg" width="960" height="540" viewBox="0 0 960 540" role="img" aria-labelledby="title desc">
  <title id="title">VO21-004 graph slice</title>
  <desc id="desc">Replay, source and evidence ledgers: traceable graph slice generated from canonical 021 frontier data.</desc>
  <rect width="960" height="540" fill="#12343b" />
  <rect x="36" y="34" width="888" height="472" rx="18" fill="none" stroke="#f2c14e" stroke-width="2" opacity="0.55" />
  <text x="56" y="78" fill="#ffffff" font-family="Arial, sans-serif" font-size="26" font-weight="700">VO21-004</text>
  <text x="56" y="112" fill="#f2c14e" font-family="Arial, sans-serif" font-size="18">graph slice</text>
  <line x1="105" y1="295" x2="403" y2="351" stroke="#f2c14e" stroke-width="2" opacity="0.55" />
<line x1="403" y1="351" x2="200" y2="160" stroke="#f2c14e" stroke-width="2" opacity="0.55" />
<line x1="200" y1="160" x2="415" y2="131" stroke="#f2c14e" stroke-width="2" opacity="0.55" />
<line x1="415" y1="131" x2="201" y2="357" stroke="#f2c14e" stroke-width="2" opacity="0.55" />
<line x1="201" y1="357" x2="415" y2="160" stroke="#f2c14e" stroke-width="2" opacity="0.55" />
<line x1="415" y1="160" x2="105" y2="295" stroke="#f2c14e" stroke-width="2" opacity="0.55" />
  <circle cx="105" cy="295" r="16" fill="#2ca6a4" opacity="0.62" />
<circle cx="403" cy="351" r="19" fill="#2ca6a4" opacity="0.8" />
<circle cx="200" cy="160" r="22" fill="#2ca6a4" opacity="0.62" />
<circle cx="415" cy="131" r="16" fill="#2ca6a4" opacity="0.8" />
<circle cx="201" cy="357" r="19" fill="#2ca6a4" opacity="0.62" />
<circle cx="415" cy="160" r="22" fill="#2ca6a4" opacity="0.8" />
  <path d="M92 430 C 220 360, 290 470, 420 406 S 650 348, 830 424" fill="none" stroke="#2ca6a4" stroke-width="8" opacity="0.82" />
  <text x="56" y="472" fill="#ffffff" font-family="Arial, sans-serif" font-size="18">Replay, source and evidence ledgers</text>
  <text x="56" y="500" fill="#d7dee8" font-family="Arial, sans-serif" font-size="13">Replay, source and evidence ledgers: traceable graph slice generated from canonical 021 frontier data.</text>
</svg>
